<?xml version="1.0" encoding="UTF-8" standalone="no"?>
<svg
  version="1.1"
  xmlns="http://www.w3.org/2000/svg"
  xmlns:xlink="http://www.w3.org/1999/xlink"
  xmlns:svg="http://www.w3.org/2000/svg"
  xmlns:rdf="http://www.w3.org/1999/02/22-rdf-syntax-ns#"
  xmlns:cc="http://creativecommons.org/ns#"
  xmlns:dc="http://purl.org/dc/elements/1.1/"
  viewBox="0 0 320 320"
  width="320"
  height="320"
>
<style>svg {background-color: white; }</style>"
<metadata id="metadata1">
Created by https://svgstud.io and licensed under CC-BY-SA 4.0 license. Please attribute https://svgstud.io
</metadata>
<metadata id="prompt">
a dragon's head
</metadata>
<metadata id="version">
7
</metadata>
<metadata id="metadata2">
<rdf:RDF>
<cc:Work
    rdf:about="">
    <cc:license
    rdf:resource="http://creativecommons.org/licenses/by-sa/4.0/" />
    <dc:creator>
        <cc:Agent>
            <dc:title>https://svgstud.io</dc:title>
        </cc:Agent>
    </dc:creator>
</cc:Work>
<cc:License
    rdf:about="http://creativecommons.org/licenses/by-sa/4.0/">
    <cc:permits
    rdf:resource="http://creativecommons.org/ns#Reproduction" />
    <cc:permits
    rdf:resource="http://creativecommons.org/ns#Distribution" />
    <cc:requires
    rdf:resource="http://creativecommons.org/ns#Notice" />
    <cc:requires
    rdf:resource="http://creativecommons.org/ns#Attribution" />
    <cc:permits
    rdf:resource="http://creativecommons.org/ns#DerivativeWorks" />
    <cc:requires
    rdf:resource="http://creativecommons.org/ns#ShareAlike" />
</cc:License>
</rdf:RDF>
</metadata>
<metadata id="uid">
5b7925891c94b80cf27e41d94a5fef47465c010b6776c6ce611606a52a79da18
</metadata>
<path stroke="none" fill="black" fill-rule="evenodd" d="M178.37,311.71C177.85,311.88 176.05,310.56 174.37,308.76C172.69,306.97 170.40,304.15 169.27,302.50C168.14,300.85 165.81,296.72 164.09,293.33C162.36,289.93 160.29,284.98 159.49,282.33C158.68,279.67 158.02,273.66 158.01,268.96C158.00,264.26 158.68,257.74 159.52,254.46C160.36,251.18 163.06,244.30 165.52,239.16C167.98,234.02 170.00,229.64 170.00,229.41C170.00,229.18 169.04,229.00 167.87,229.00C166.69,229.00 163.89,229.55 161.63,230.23C159.16,230.97 155.90,233.16 153.44,235.73C150.19,239.12 148.64,240.00 145.92,240.01C144.04,240.01 139.60,240.49 136.06,241.06C132.52,241.63 124.65,244.14 118.56,246.63C112.48,249.12 104.84,252.57 101.59,254.30C96.10,257.22 95.45,257.96 92.41,264.62C89.14,271.80 89.14,271.80 79.82,274.00C74.69,275.21 67.07,276.44 62.88,276.73C58.69,277.03 51.49,276.73 46.88,276.07C42.27,275.41 36.58,273.95 34.22,272.83C31.87,271.71 29.31,269.57 28.54,268.08C27.77,266.58 26.21,261.73 25.08,257.30C23.94,252.86 21.89,246.82 20.52,243.87C19.14,240.92 18.02,237.35 18.01,235.94C18.00,234.53 18.56,232.70 19.25,231.86C19.94,231.02 23.42,228.28 27.00,225.78C30.58,223.27 36.92,217.68 41.09,213.36C45.27,209.04 51.34,201.89 54.59,197.48C57.84,193.07 62.20,185.82 64.28,181.37C66.36,176.92 68.95,170.18 70.04,166.39C71.13,162.60 72.30,156.53 72.64,152.91C73.21,146.78 73.00,145.74 69.54,138.09C67.19,132.88 66.03,129.03 66.38,127.61C66.69,126.38 71.34,121.51 76.72,116.78C82.10,112.05 89.99,104.60 94.25,100.21C102.00,92.23 102.00,92.23 102.00,83.25C102.00,78.30 102.67,70.44 103.48,65.76C104.30,61.08 106.37,53.26 108.08,48.38C109.80,43.50 112.97,36.08 115.13,31.91C117.29,27.74 120.45,23.01 122.16,21.41C125.27,18.50 125.27,18.50 124.39,23.50C123.90,26.25 123.55,33.90 123.61,40.50C123.70,50.25 124.17,53.89 126.12,59.90C127.44,63.97 129.23,67.74 130.10,68.29C131.32,69.06 133.13,68.15 138.09,64.27C141.62,61.51 148.10,56.96 152.50,54.16C156.90,51.35 161.47,48.38 162.66,47.55C164.04,46.59 165.23,44.15 165.93,40.87C166.54,38.03 168.62,32.06 170.54,27.60C172.47,23.15 175.69,16.80 177.69,13.50C179.70,10.20 182.65,5.81 184.25,3.75C186.10,1.38 188.00,0.00 189.43,0.00C191.62,0.00 191.67,0.19 190.82,5.59C190.26,9.19 190.34,13.35 191.05,17.29C191.66,20.65 193.00,25.61 194.03,28.31C195.05,31.01 196.61,34.02 197.49,34.99C199.02,36.68 199.36,36.68 205.14,34.88C209.03,33.67 214.16,33.00 219.59,33.00C224.22,33.00 228.00,33.25 228.00,33.56C228.00,33.87 223.54,40.25 218.08,47.73C212.63,55.21 206.56,64.06 204.58,67.40C202.61,70.73 201.00,74.49 201.00,75.76C201.00,77.03 201.76,78.35 202.69,78.71C203.89,79.17 205.63,77.95 208.78,74.43C211.20,71.72 217.81,62.53 223.46,54.00C229.11,45.47 236.49,33.64 239.85,27.70C243.21,21.77 247.41,14.81 249.18,12.24C250.94,9.68 253.93,5.87 255.81,3.79C257.69,1.71 260.08,0.00 261.12,0.00C262.15,0.00 263.00,0.21 263.00,0.47C263.00,0.73 261.70,4.22 260.12,8.22C258.53,12.23 256.47,17.75 255.53,20.50C254.59,23.25 252.77,29.75 251.48,34.95C250.18,40.14 249.30,44.68 249.52,45.03C249.73,45.38 252.97,46.94 256.70,48.51C260.44,50.08 267.55,53.80 272.50,56.78C277.45,59.77 284.43,64.58 288.00,67.48C291.57,70.39 296.41,74.54 298.75,76.73C301.09,78.91 303.00,81.42 303.00,82.30C303.00,83.23 301.20,84.70 298.73,85.80C296.38,86.83 293.68,88.46 292.73,89.41C291.78,90.36 291.00,91.69 291.00,92.35C291.00,93.02 293.82,97.38 297.26,102.03C300.70,106.69 305.43,112.90 307.76,115.84C310.09,118.78 312.00,121.76 312.00,122.46C312.00,123.17 310.61,124.03 308.92,124.37C307.23,124.70 304.32,125.70 302.47,126.58C300.17,127.67 298.73,129.27 297.96,131.61C297.34,133.50 297.11,136.94 297.46,139.27C297.80,141.60 298.81,146.65 299.70,150.50C300.59,154.35 302.54,160.43 304.04,164.00C305.54,167.57 307.81,172.85 309.07,175.73C310.34,178.60 311.13,181.20 310.83,181.50C310.53,181.80 308.11,181.12 305.45,179.98C302.80,178.84 298.80,177.68 296.56,177.39C293.54,177.00 291.35,177.46 288.00,179.19C285.12,180.66 282.33,183.25 280.26,186.34C278.48,189.01 276.54,193.00 275.94,195.23C275.31,197.55 275.15,201.45 275.55,204.39C275.93,207.20 277.49,212.88 279.02,217.00C280.55,221.12 282.62,226.61 283.62,229.19C284.62,231.78 285.14,234.19 284.77,234.57C284.39,234.94 281.16,234.45 277.58,233.49C273.05,232.26 269.02,231.88 264.29,232.23C260.09,232.54 254.40,233.94 249.36,235.90C244.88,237.64 236.42,242.23 230.57,246.10C224.67,249.99 215.46,257.41 209.92,262.73C204.41,268.01 197.69,275.29 194.96,278.91C192.24,282.54 188.35,288.65 186.31,292.50C184.27,296.35 181.86,302.18 180.96,305.45C180.06,308.72 178.90,311.53 178.37,311.71zM55.27,267.53C57.34,267.34 61.39,265.71 64.27,263.90C67.15,262.10 71.80,259.13 74.61,257.31C77.75,255.27 81.37,251.59 84.02,247.75C86.40,244.31 90.76,238.46 93.72,234.73C96.72,230.98 102.98,225.05 107.80,221.41C112.58,217.81 119.87,213.25 124.00,211.28C128.12,209.32 136.90,205.72 143.50,203.28C150.10,200.84 160.22,197.75 166.00,196.39C171.78,195.04 179.30,193.02 182.72,191.90C186.91,190.52 190.61,188.36 194.03,185.28C196.86,182.74 199.47,181.11 199.92,181.61C200.36,182.10 200.32,183.98 199.83,185.78C199.31,187.67 196.30,191.71 192.71,195.35C187.63,200.51 184.05,202.89 173.00,208.48C165.57,212.24 157.34,216.80 154.71,218.61C151.92,220.53 149.26,221.65 148.35,221.30C147.22,220.87 146.93,219.84 147.31,217.60C147.60,215.90 148.14,213.71 148.52,212.75C149.03,211.46 148.72,211.00 147.36,211.02C146.34,211.02 140.10,215.31 133.50,220.54C126.90,225.77 119.15,231.48 116.28,233.22C113.41,234.96 110.83,237.01 110.53,237.77C110.12,238.86 110.70,239.01 113.25,238.46C115.04,238.07 120.92,236.00 126.33,233.85C134.87,230.46 136.81,230.04 141.13,230.61C145.60,231.20 146.39,231.00 148.82,228.67C150.72,226.85 154.11,225.46 160.13,224.03C164.85,222.91 174.74,220.88 182.11,219.52C189.47,218.16 199.32,215.75 204.00,214.16C208.68,212.58 214.82,210.28 217.65,209.06C221.99,207.19 222.90,206.34 223.37,203.67C223.68,201.93 224.38,195.78 224.91,190.00C225.45,184.22 226.18,174.94 226.54,169.37C227.14,160.21 226.98,158.77 224.98,154.37C223.76,151.69 222.46,148.15 222.09,146.50C221.42,143.50 221.42,143.50 211.46,143.22C201.50,142.95 201.50,142.95 199.45,147.22C198.22,149.79 195.04,153.40 191.45,156.30C188.18,158.95 182.80,162.38 179.50,163.94C176.20,165.49 171.10,167.32 168.17,168.00C164.85,168.77 160.50,168.98 156.67,168.55C153.27,168.18 147.69,167.17 144.25,166.31C140.53,165.39 138.00,164.22 138.00,163.44C138.00,162.71 138.37,161.89 138.83,161.60C139.29,161.32 143.85,160.18 148.97,159.06C154.09,157.94 160.23,155.88 162.62,154.48C165.01,153.08 168.60,150.26 170.60,148.22C172.60,146.17 176.43,141.26 179.12,137.30C181.80,133.33 184.00,129.43 184.00,128.63C184.00,127.83 182.09,125.77 179.75,124.04C177.41,122.32 174.50,120.66 173.28,120.36C171.99,120.03 169.15,120.72 166.53,121.99C164.04,123.19 162.00,124.79 162.00,125.53C162.00,126.27 162.46,127.16 163.01,127.51C163.57,127.85 164.92,129.89 166.01,132.03C167.11,134.17 168.00,137.11 168.00,138.56C168.00,140.01 167.22,142.51 166.27,144.12C165.32,145.73 162.91,148.17 160.92,149.55C158.33,151.35 153.71,152.75 144.57,154.51C135.11,156.32 130.14,157.85 125.20,160.48C121.55,162.41 118.21,164.00 117.78,164.00C117.35,164.00 117.00,162.88 117.00,161.50C117.00,160.12 116.60,159.00 116.11,159.00C115.62,159.00 114.34,159.79 113.26,160.75C112.19,161.71 109.14,165.11 106.48,168.30C103.83,171.50 100.79,174.57 99.73,175.14C97.95,176.10 97.86,175.92 98.51,172.84C98.90,171.00 101.87,163.68 105.11,156.57C108.35,149.45 111.00,143.04 111.00,142.32C111.00,141.59 110.53,141.00 109.95,141.00C109.37,141.00 107.57,141.69 105.95,142.53C103.14,143.98 103.00,143.95 103.00,141.99C103.00,140.85 104.69,138.17 106.75,136.03C109.31,133.37 115.56,129.61 126.50,124.17C135.30,119.78 147.68,114.53 154.00,112.49C161.45,110.09 168.25,108.60 173.30,108.26C179.57,107.84 182.59,108.18 188.69,109.99C194.53,111.73 197.55,112.09 201.83,111.59C204.88,111.23 210.47,109.86 214.25,108.55C220.09,106.52 221.21,106.38 221.69,107.63C222.01,108.46 220.54,111.55 218.38,114.62C216.25,117.65 213.88,121.00 213.13,122.06C212.37,123.13 212.18,124.00 212.71,124.00C213.23,124.00 215.81,122.57 218.45,120.82C221.09,119.08 225.67,114.70 228.64,111.11C231.61,107.51 235.15,102.32 236.52,99.59C237.88,96.85 239.00,93.78 239.00,92.77C239.00,91.76 238.37,90.70 237.60,90.40C236.83,90.10 234.13,90.80 231.62,91.95C229.10,93.09 225.00,94.31 222.50,94.66C219.12,95.12 217.52,94.88 216.23,93.71C215.28,92.86 211.95,91.20 208.84,90.04C205.73,88.88 201.69,86.92 199.86,85.68C198.02,84.45 196.12,82.27 195.61,80.84C194.84,78.64 195.33,77.35 198.85,72.33C201.13,69.08 203.00,66.03 203.00,65.56C203.00,65.09 197.49,64.98 190.75,65.31C184.01,65.64 175.92,66.62 172.78,67.48C169.63,68.34 164.98,69.94 162.45,71.02C159.92,72.11 155.30,74.68 152.19,76.75C149.08,78.81 143.65,83.20 140.12,86.50C136.59,89.80 129.61,97.21 124.60,102.96C119.60,108.72 113.93,114.87 112.00,116.63C110.08,118.40 108.34,119.68 108.14,119.47C107.94,119.27 108.46,117.10 109.29,114.65C110.13,112.20 112.48,107.57 114.52,104.35C116.57,101.13 121.17,94.55 124.75,89.71C128.33,84.88 130.99,80.65 130.66,80.32C130.33,79.99 127.51,81.25 124.40,83.11C121.23,85.01 109.46,95.45 97.62,106.85C86.00,118.05 76.50,127.72 76.50,128.33C76.50,128.95 78.03,130.37 79.91,131.48C81.78,132.59 84.82,134.92 86.66,136.65C89.23,139.07 90.00,140.62 90.00,143.34C90.00,145.29 89.51,147.18 88.92,147.55C88.33,147.92 87.18,147.27 86.36,146.11C85.55,144.95 84.34,144.00 83.66,144.00C82.89,144.00 81.79,147.86 80.66,154.51C79.68,160.30 78.04,167.49 77.00,170.50C75.97,173.50 73.30,179.46 71.07,183.73C68.84,188.00 64.13,195.34 60.60,200.04C57.07,204.74 50.00,213.00 44.90,218.39C39.51,224.08 33.39,229.46 30.31,231.20C27.39,232.84 25.00,234.89 25.00,235.75C25.00,236.61 26.15,238.82 27.55,240.66C28.95,242.50 30.70,245.46 31.43,247.25C32.16,249.04 33.07,252.75 33.45,255.50C33.84,258.25 34.78,261.48 35.55,262.67C36.49,264.13 38.68,265.20 42.22,265.91C45.12,266.50 48.40,267.18 49.50,267.42C50.60,267.67 53.20,267.71 55.27,267.53zM44.15,248.00C43.69,248.00 42.57,247.18 41.67,246.18C40.76,245.19 39.76,242.82 39.43,240.93C38.84,237.50 38.84,237.50 41.92,240.77C43.61,242.56 45.00,244.92 45.00,246.02C45.00,247.11 44.62,248.00 44.15,248.00zM57.90,247.00C57.41,247.00 57.00,246.58 57.00,246.06C57.00,245.54 57.45,244.84 58.00,244.50C58.55,244.16 59.00,243.51 59.00,243.06C59.00,242.61 57.36,242.80 55.36,243.49C53.36,244.18 50.84,244.51 49.78,244.23C48.71,243.95 47.50,242.81 47.09,241.70C46.67,240.59 46.53,238.68 46.76,237.45C47.00,236.22 48.84,233.63 50.85,231.68C52.86,229.73 55.70,227.84 57.17,227.48C59.32,226.95 60.16,227.31 61.48,229.33C62.38,230.71 63.15,233.56 63.18,235.67C63.21,237.91 62.31,241.06 61.02,243.25C59.80,245.31 58.40,247.00 57.90,247.00zM274.25,225.97C274.66,225.99 274.99,225.44 274.98,224.75C274.97,224.06 273.87,221.70 272.54,219.50C271.20,217.30 269.17,213.81 268.03,211.74C266.86,209.63 265.30,203.70 264.48,198.24C263.67,192.88 263.00,186.70 262.99,184.50C262.98,182.30 262.70,179.49 262.37,178.25C262.04,177.01 261.18,176.00 260.46,176.00C259.75,176.00 257.11,178.59 254.59,181.75C252.08,184.91 248.72,189.97 247.12,193.00C245.52,196.03 243.90,199.98 243.52,201.79C243.07,203.93 243.27,205.62 244.10,206.62C244.80,207.47 247.95,209.46 251.09,211.04C254.23,212.63 259.75,216.16 263.35,218.89C266.95,221.61 270.71,224.32 271.70,224.89C272.69,225.47 273.84,225.95 274.25,225.97zM86.93,224.00C85.87,224.00 85.00,223.39 85.00,222.65C85.00,221.92 85.79,220.63 86.75,219.81C87.71,218.98 89.24,218.04 90.15,217.72C91.06,217.40 92.06,217.39 92.37,217.71C92.69,218.02 92.02,219.56 90.90,221.14C89.78,222.71 87.99,224.00 86.93,224.00zM123.60,200.00C121.61,200.00 121.62,199.96 123.76,198.46C124.97,197.61 127.53,196.26 129.45,195.46C131.37,194.66 134.13,194.00 135.59,194.00C137.83,194.00 138.05,194.23 137.00,195.50C136.32,196.32 133.48,197.67 130.70,198.50C127.91,199.32 124.72,200.00 123.60,200.00zM296.75,166.92C297.44,166.96 298.00,166.59 298.00,166.09C298.00,165.60 295.75,161.86 293.00,157.79C290.25,153.72 286.64,146.66 284.98,142.09C283.31,137.53 281.27,132.50 280.45,130.90C279.43,128.94 278.18,128.00 276.57,128.00C274.97,128.00 272.57,129.79 269.18,133.49C266.42,136.51 262.78,141.76 261.08,145.15C259.39,148.54 258.00,152.36 258.00,153.64C258.00,155.23 258.71,156.12 260.25,156.46C261.49,156.73 267.45,158.05 273.50,159.38C279.55,160.71 286.98,162.93 290.00,164.32C293.02,165.70 296.06,166.87 296.75,166.92zM154.00,146.44C155.93,146.10 158.29,145.12 159.25,144.26C160.21,143.40 161.00,141.38 161.00,139.79C161.00,137.73 159.72,135.53 156.59,132.22C152.56,127.95 151.94,127.63 149.39,128.53C147.86,129.07 145.72,131.03 144.63,132.89C142.82,136.00 142.77,136.61 144.08,140.36C144.92,142.79 146.52,144.98 148.00,145.75C149.49,146.52 151.92,146.80 154.00,146.44zM293.79,106.91C294.71,106.98 294.81,106.50 294.11,105.21C293.58,104.22 290.98,101.37 288.33,98.87C285.67,96.38 281.49,92.12 279.03,89.42C276.57,86.71 270.83,81.43 266.26,77.67C261.70,73.91 255.02,69.30 251.41,67.42C247.81,65.54 243.98,64.00 242.90,64.00C241.69,64.00 240.55,65.05 239.90,66.75C239.33,68.26 238.35,71.41 237.73,73.73C236.67,77.68 236.77,78.15 239.17,80.73C240.59,82.26 242.36,84.62 243.10,86.00C243.83,87.38 244.68,90.97 244.97,94.00C245.50,99.50 245.50,99.50 254.50,100.15C259.45,100.50 267.77,101.53 273.00,102.43C278.23,103.33 284.75,104.69 287.50,105.45C290.25,106.20 293.08,106.86 293.79,106.91z" />

</svg>
